<?xml version="1.0" encoding="utf-8"?>
<!-- Generator: Adobe Illustrator 23.0.4, SVG Export Plug-In . SVG Version: 6.00 Build 0)  -->
<svg version="1.1" id="Layer_1" xmlns="http://www.w3.org/2000/svg" xmlns:xlink="http://www.w3.org/1999/xlink" x="0px" y="0px"
	 viewBox="0 0 512 512" style="enable-background:new 0 0 512 512;" xml:space="preserve">
<style type="text/css">
	.st0{clip-path:url(#SVGID_2_);fill:#ffffff;}
</style>
<g>
	<defs>
		<path id="SVGID_1_" d="M427,113.9l-83.9,20.3c0,0,0.1,0,0.1,0l-8.1,2c0,0,0.1,0,0.1,0l-4.7,1.1c-3.3-0.1-6.5-0.6-9.7-1.6
			l-10.3-5.3c0,0-44.1-24.3-49.8-26.9c-4.4-2-9-3.1-13.8-3.4c-2.1-0.1-12.4,1.2-15,8.2c-2.5,7,1.4,6.3,5.8,6
			c4.5-0.2,2.1-0.6,9.3-2.1c4.3-0.9,8.7-0.6,12.8,0.9c0,0,28.6,16.7,37.3,22.4c6,4,4,7.5,2.1,9.4l-131.7,31.9
			c-3.3,0.1-6.6-0.3-9.8-1.3l-8.9-4.6c0,0-37.8-20.8-42.6-23.1c-3.7-1.7-7.7-2.6-11.8-2.9c-1.8-0.1-10.6,1-12.8,7
			c-2.2,6,1.2,5.4,5,5.2c3.8-0.2,1.8-0.6,8-1.8c3.7-0.8,7.5-0.5,11,0.7c0,0,24.5,14.3,32,19.2c5.9,3.9,2.8,7.3,1.2,8.6L62.9,202
			L52.7,328.1L257.5,307c18.5,0.6,28.9,7.2,47.3,16.7c22.8,11.7,59.2,65,68.5,80.8c9.4,15.8,5.9,1.8,5.9,1.8s-2.9-52.4-1.8-79.1
			c0.9-21.4,13.9-31.4,19-34.5l62.9-6.5L427,113.9z M75.3,306.1l5.8-94.5l324.6-72.8L421,257.4L75.3,306.1z"/>
	</defs>
	<clipPath id="SVGID_2_">
		<use xlink:href="#SVGID_1_"  style="overflow:visible;"/>
	</clipPath>
	<circle class="st0" cx="256" cy="256" r="256"/>
</g>
</svg>
